<svg width="48" height="48" viewBox="0 0 48 48" fill="none" xmlns="http://www.w3.org/2000/svg">
<g clip-path="url(#clip0)">
<path d="M24.5 4H22.3C21.64 1.7 19.52 0 17 0C14.48 0 12.36 1.7 11.7 4H9.5C8.68 4 8 4.68 8 5.5V8.5C8 10.42 9.58 12 11.5 12H22.5C24.42 12 26 10.42 26 8.5V5.5C26 4.68 25.32 4 24.5 4Z" fill="#999999"/>
<path d="M28.5 6H28V8.5C28 11.54 25.54 14 22.5 14H11.5C8.46 14 6 11.54 6 8.5V6H5.5C2.46 6 0 8.46 0 11.5V36.5C0 39.54 2.46 42 5.5 42H20.26L20.7 39.54C20.9 38.42 21.42 37.42 22.22 36.6L23.82 35H7.5C6.68 35 6 34.32 6 33.5C6 32.68 6.68 32 7.5 32H26.5C26.6 32 26.68 32 26.78 32.04H26.8L34 24.84V11.5C34 8.46 31.54 6 28.5 6ZM26.5 28.5H7.5C6.68 28.5 6 27.82 6 27C6 26.18 6.68 25.5 7.5 25.5H26.5C27.32 25.5 28 26.18 28 27C28 27.82 27.32 28.5 26.5 28.5ZM26.5 22H7.5C6.68 22 6 21.32 6 20.5C6 19.68 6.68 19 7.5 19H26.5C27.32 19 28 19.68 28 20.5C28 21.32 27.32 22 26.5 22Z" fill="#999999"/>
<path d="M25.0539 48C24.6599 48 24.2759 47.844 23.9939 47.56C23.6479 47.214 23.4919 46.722 23.5779 46.238L24.6379 40.228C24.6899 39.926 24.8379 39.646 25.0539 39.428L39.9039 24.58C41.7279 22.752 43.5199 23.246 44.4999 24.226L46.9739 26.7C48.3399 28.064 48.3399 30.284 46.9739 31.65L32.1239 46.5C31.9079 46.718 31.6279 46.864 31.3239 46.916L25.3139 47.976C25.2279 47.992 25.1399 48 25.0539 48ZM31.0639 45.44H31.0839H31.0639Z" fill="#999999"/>
</g>
<defs>
<clipPath id="clip0">
<rect width="48" height="48" fill="white"/>
</clipPath>
</defs>
</svg>
