<svg width="16" height="16" viewBox="0 0 16 16" fill="none" xmlns="http://www.w3.org/2000/svg">
<path fill-rule="evenodd" clip-rule="evenodd" d="M-4.33337 0H19.6666V16H-4.33337V0Z" fill="#199D00"/>
<path fill-rule="evenodd" clip-rule="evenodd" d="M1.71347 4.53439C1.68847 4.90939 1.65097 5.56564 1.97285 5.63439C2.35722 5.67189 2.14472 4.98439 2.28535 4.85939C2.31035 4.79689 2.35722 4.79689 2.36035 4.87501V5.45939C2.36035 5.64689 2.48535 5.70314 2.5791 5.74064C2.6791 5.73439 2.74785 5.74064 2.78535 5.83439L2.83535 6.84376C2.83535 6.84376 3.0666 6.91251 3.0791 6.27814C3.08847 5.90314 3.0041 5.59376 3.0541 5.52189C3.0541 5.45001 3.14785 5.44689 3.21035 5.48126C3.31035 5.55001 3.3541 5.63751 3.51035 5.60626C3.74785 5.53751 3.8916 5.42189 3.89472 5.24064C3.89003 5.06252 3.85297 4.88674 3.78535 4.72189C3.79785 4.69064 3.7416 4.60626 3.7541 4.57501C3.79472 4.64376 3.86035 4.63751 3.87285 4.57501C3.83222 4.44376 3.76972 4.31564 3.66972 4.26251C3.58535 4.18751 3.46035 4.20001 3.41972 4.35626C3.39472 4.53439 3.48222 4.74376 3.61035 4.91876C3.63847 4.98439 3.67597 5.09689 3.66035 5.19689C3.5916 5.23751 3.52285 5.21876 3.46347 5.15939C3.46347 5.15939 3.27597 5.01876 3.27597 4.98439C3.32597 4.66564 3.28535 4.62814 3.25722 4.53751C3.23847 4.41564 3.1791 4.37501 3.13222 4.29376C3.08535 4.24376 3.02285 4.24376 2.9916 4.29376C2.90722 4.43751 2.94785 4.74689 3.00722 4.88751C3.05097 5.01564 3.1166 5.09689 3.08535 5.09689C3.06035 5.16876 3.00722 5.15001 2.9666 5.06564C2.92087 4.88807 2.8988 4.70524 2.90097 4.52189C2.88535 4.37814 2.8666 4.07189 2.76972 3.99064C2.71347 3.91564 2.6291 3.95314 2.59785 4.02189C2.5896 4.1615 2.59273 4.30154 2.60722 4.44064C2.66972 4.67189 2.6916 4.87814 2.72285 5.11251C2.73222 5.42814 2.5416 5.25001 2.55097 5.09064C2.59197 4.89028 2.58877 4.68339 2.5416 4.48439C2.51035 4.40314 2.47597 4.38439 2.39785 4.39689C2.33847 4.39689 2.18535 4.56251 2.1416 4.84376C2.1416 4.84376 2.1041 4.98751 2.08847 5.11564C2.0666 5.25939 1.97285 5.36564 1.9041 5.09689C1.84785 4.90001 1.81035 4.42189 1.7166 4.53439H1.71347Z" fill="white"/>
<path fill-rule="evenodd" clip-rule="evenodd" d="M2.76038 6.06874L1.76038 6.54999C1.76975 6.32186 2.23225 5.91249 2.551 5.90936C2.75413 5.91249 2.70413 5.98749 2.75725 6.06874H2.76038Z" fill="white"/>
<path fill-rule="evenodd" clip-rule="evenodd" d="M2.58222 6.38125C2.05722 7.74063 3.81659 7.93125 4.01347 6.4375C4.03222 6.375 4.10722 6.31562 4.11972 6.41562C4.07909 7.76875 2.75722 7.85938 2.53222 7.43437C2.47929 7.28814 2.45284 7.13364 2.4541 6.97812C2.42285 6.7125 2.28222 6.81562 2.26035 7.07812C2.23847 7.225 2.24472 7.26562 2.24472 7.40625C2.31347 8.475 4.01659 8.01563 4.29472 7.13437C4.44159 6.64687 4.26972 6.2875 4.34784 6.2875C4.51659 6.46875 4.75409 6.3125 4.80722 6.24999C4.82909 6.21874 4.88534 6.19687 4.92284 6.2375C5.05409 6.33125 5.28534 6.2875 5.33534 6.12187C5.36347 5.95624 5.38534 5.78749 5.39159 5.61562C5.28222 5.64687 5.20409 5.66874 5.19472 5.71562L5.17284 5.85937C5.16347 5.90624 5.07284 5.90624 5.06659 5.84687C5.02597 5.65937 4.85722 5.63749 4.75409 5.92499C4.68847 5.98124 4.56347 5.99374 4.55097 5.90937C4.56659 5.71562 4.48847 5.69062 4.33222 5.78124L4.18222 4.64999C4.24472 4.64999 4.30722 4.69686 4.36659 4.62186C4.30409 4.41874 4.16347 4.00624 4.08534 3.97499C4.05097 3.93124 4.01972 3.95936 3.96972 3.97186C3.88847 3.99686 3.81347 4.06561 3.83847 4.20311C3.93222 4.79061 3.99472 5.23749 4.09159 5.82812C4.10722 5.89374 4.05097 5.98437 3.97597 5.97499C3.85097 5.89062 3.81972 5.71874 3.60097 5.72499C3.44472 5.72499 3.26972 5.89687 3.24785 6.05937C3.21972 6.19062 3.21035 6.33125 3.24785 6.44375C3.35722 6.575 3.48847 6.5625 3.60409 6.53437C3.69784 6.49375 3.77597 6.4 3.81034 6.42187C3.83222 6.45 3.81347 6.7625 3.36347 7C3.0916 7.125 2.87285 7.15 2.75722 6.92812C2.68535 6.7875 2.76347 6.25937 2.58222 6.38125Z" fill="white"/>
<path fill-rule="evenodd" clip-rule="evenodd" d="M4.8229 5.00001C4.92603 4.96251 5.42603 4.38751 5.42603 4.38751L5.35103 4.32501C5.3229 4.30313 5.32603 4.27813 5.35103 4.25626C5.47603 4.18126 5.4354 4.02501 5.3729 3.95001C5.33047 3.92932 5.2838 3.91884 5.2366 3.91938C5.18939 3.91992 5.14297 3.93148 5.10103 3.95313C5.01353 4.03751 4.99478 4.17188 5.06353 4.25313C5.12915 4.28438 5.19478 4.35313 5.15103 4.39063C4.94478 4.60938 4.3854 4.98751 4.45103 5.00001C4.46353 5.01876 4.8104 5.01876 4.81978 5.00001H4.8229ZM1.79165 7.03126C1.60415 7.33126 1.58852 7.77813 1.69165 7.91251C1.7479 7.97501 1.83852 8.00313 1.90415 7.98126C2.0229 7.93126 2.07602 7.69063 2.0479 7.60626C2.00727 7.54376 1.97602 7.53438 1.9354 7.58438C1.85415 7.75313 1.81977 7.63751 1.8104 7.54376C1.80144 7.38499 1.80982 7.22571 1.8354 7.06876C1.85727 6.93751 1.8354 6.97501 1.79165 7.03126ZM9.82604 6.55313C9.64479 6.15938 9.39166 5.77188 9.31354 5.62501C9.07001 5.24002 8.81147 4.86473 8.53853 4.50001C8.34478 4.26876 8.85728 4.59688 8.47603 4.13438L8.19791 3.90001C8.13541 3.85626 7.98541 3.77501 7.96041 3.90626C7.94791 4.02501 7.95416 4.08751 7.97291 4.18438C7.98853 4.24688 8.08228 4.35626 8.12916 4.41876C8.76982 5.26734 9.33253 6.17206 9.81041 7.12188C9.89166 7.08126 9.87291 6.61876 9.82604 6.55313Z" fill="white"/>
<path fill-rule="evenodd" clip-rule="evenodd" d="M9.02916 7.85938C8.99166 7.90001 9.11666 8.07188 9.27916 8.07188C9.54791 8.04063 9.78541 7.89063 10.0042 7.49063C10.093 7.35757 10.1498 7.20565 10.1698 7.04688C10.1962 6.28826 10.1354 5.52912 9.98853 4.78438C9.97916 4.72188 9.98853 4.64688 9.99478 4.62813C10.0135 4.60626 10.0729 4.62813 10.1042 4.57501C10.151 4.52813 9.97916 4.13751 9.88541 3.99063C9.85416 3.92188 9.83853 3.87813 9.78228 3.99688C9.71441 4.12792 9.68208 4.27446 9.68853 4.42188C9.81666 5.31251 9.85728 6.09063 9.93853 6.98126C9.94791 7.06876 9.93541 7.19376 9.87603 7.24376C9.64023 7.5063 9.35164 7.71609 9.02916 7.85938ZM12.6698 7.85626C12.476 7.96876 12.476 8.09688 12.6323 8.10001C12.901 8.06876 13.2198 8.04688 13.4385 7.71563C13.5158 7.55962 13.5605 7.38949 13.5698 7.21563C13.6091 6.46869 13.5598 5.71972 13.4229 4.98438C13.4167 4.92188 13.3885 4.77501 13.3979 4.75626C13.4167 4.71251 13.5042 4.75938 13.5354 4.70938C13.5792 4.66251 13.3073 4.31251 13.2104 4.16251C13.1792 4.09376 13.1667 4.05001 13.1073 4.16876C13.0443 4.301 13.0247 4.4497 13.051 4.59376C13.1948 5.56251 13.301 6.28751 13.3229 7.14376C13.3104 7.22501 13.3073 7.26876 13.2698 7.37188C13.1854 7.47813 13.0917 7.61563 13.0042 7.68126C12.9167 7.74376 12.7292 7.80626 12.6698 7.85626Z" fill="white"/>
<path fill-rule="evenodd" clip-rule="evenodd" d="M12.8135 6.99063C12.8135 6.7625 12.8166 6.56876 12.8104 6.39688C12.8084 6.25132 12.7765 6.10772 12.7166 5.97501C12.6604 5.84688 12.6948 5.74376 12.6666 5.60626C12.6416 5.46876 12.6479 5.26251 12.6104 5.10313C12.5979 5.04063 12.5666 4.83751 12.576 4.81563C12.5916 4.77188 12.651 4.81563 12.6823 4.76563C12.726 4.71876 12.526 4.20314 12.426 4.05626C12.3916 3.99064 12.3229 4.01251 12.2448 4.11876C12.1666 4.19064 12.1948 4.35001 12.226 4.50313C12.4166 5.51251 12.5635 6.42813 12.5323 7.3875C12.5198 7.46875 12.8135 7.14375 12.8135 6.99063ZM11.3854 5.74063C11.2635 5.73438 11.0104 5.50001 10.9354 5.36563C10.9231 5.33279 10.9179 5.29774 10.92 5.26274C10.9222 5.22775 10.9317 5.1936 10.9479 5.16251C10.9948 5.13126 11.0635 5.10001 11.1166 5.13126C11.1166 5.13126 11.1698 5.20626 11.1604 5.21563C11.2229 5.24688 11.2541 5.23126 11.2604 5.20313C11.2635 5.15626 11.2416 5.12813 11.2416 5.07813C11.2698 4.93438 11.4291 4.91251 11.4916 5.00313C11.5354 5.05938 11.5541 5.17501 11.5573 5.25313C11.5573 5.29376 11.4948 5.24688 11.4541 5.25313C11.4198 5.26563 11.4104 5.30938 11.4073 5.34688C11.401 5.45001 11.3885 5.61563 11.3854 5.73751V5.74063ZM9.14163 7.24063C9.17288 6.93438 9.12913 6.38751 9.126 6.20626C9.10929 5.74012 9.0707 5.27503 9.01038 4.81251C8.97288 4.55001 9.11663 4.84063 9.09788 4.68751C9.051 4.42813 8.90725 4.25001 8.73538 4.01564C8.68225 3.93751 8.68225 3.92189 8.59787 4.03439C8.50412 4.24376 8.58537 4.39063 8.61038 4.55626C8.73225 5.09376 8.80413 5.58751 8.8385 6.07813C8.87448 6.58779 8.87866 7.0992 8.851 7.60938C8.94475 7.6125 9.0885 7.4625 9.14163 7.24063Z" fill="white"/>
<path fill-rule="evenodd" clip-rule="evenodd" d="M13.2291 6.74998C13.0135 6.38748 12.6916 5.99998 12.6041 5.85311C12.3143 5.44845 12.01 5.05444 11.6916 4.67186C11.426 4.39061 11.8166 4.62499 11.6416 4.40624C11.4947 4.24686 11.4541 4.19374 11.326 4.09686C11.2635 4.05624 11.226 3.97811 11.201 4.11249C11.191 4.22888 11.1889 4.34581 11.1947 4.46249C11.1947 4.51561 11.251 4.61874 11.301 4.68124C11.9478 5.47811 12.6572 6.29061 13.226 7.31248C13.3072 7.27186 13.2791 6.81248 13.226 6.74998H13.2291Z" fill="white"/>
<path fill-rule="evenodd" clip-rule="evenodd" d="M3.49782 6.08439C3.4822 6.11251 3.44782 6.14688 3.46032 6.18126C3.4822 6.21251 3.50407 6.22188 3.54157 6.22188C3.57595 6.22188 3.62594 6.23126 3.63532 6.21251C3.65407 6.19063 3.66657 6.15001 3.65407 6.10938C3.61657 6.01564 3.51657 6.05314 3.49782 6.08439Z" fill="#1BA400"/>
<path fill-rule="evenodd" clip-rule="evenodd" d="M10.7354 11.3281C11.0229 11.3406 11.2104 11.3437 11.4635 11.3719L11.7635 11.3406C12.0948 11.3094 12.1073 11.8125 12.1073 11.8125C12.1073 12.1094 11.9916 12.125 11.8448 12.1562C11.7604 12.1687 11.7198 12.1062 11.6729 12.0437C11.6022 12.0664 11.5269 12.0707 11.4541 12.0562C11.3323 12.05 11.2135 12.05 11.0948 12.0406C10.9698 12.0312 10.901 12.0562 10.7729 12.0437C10.7479 12.0844 10.7104 12.1406 10.6354 12.125C10.5729 12.1156 10.4948 11.9375 10.5166 11.7969C10.5635 11.6969 10.5479 11.7312 10.5479 11.6875C9.37289 11.6562 8.18851 11.6031 7.03851 11.6187C6.13851 11.6219 5.25101 11.6594 4.36039 11.6969C3.88539 11.6906 3.52289 11.6156 3.27289 11.25C3.29789 11.25 4.48539 11.3156 4.83226 11.2937C5.47289 11.2875 6.06039 11.2344 6.71351 11.2156C8.00101 11.2375 9.27914 11.2375 10.5666 11.3281C10.4416 11.2437 10.4416 11.0469 10.6291 10.9969C10.6448 10.9844 10.6541 11.0937 10.6823 11.0906C10.8354 11.0812 10.7666 11.2875 10.7354 11.3281ZM5.56039 4.22811C5.36664 4.78436 5.67289 5.39686 5.88539 5.33749C6.04164 5.39999 6.13539 5.10624 6.19789 4.78749C6.24476 4.69686 6.27601 4.68749 6.29789 4.73436C6.29164 5.15936 6.32914 5.25624 6.43851 5.38436C6.68226 5.57186 6.88539 5.40936 6.90101 5.39374L7.08851 5.20311C7.13226 5.15624 7.18851 5.15624 7.24789 5.19374C7.30726 5.24686 7.29789 5.33749 7.42289 5.39999C7.52914 5.44374 7.75101 5.41249 7.80414 5.32186C7.87289 5.19999 7.89164 5.15936 7.92289 5.11561C7.97289 5.04999 8.05726 5.07811 8.05726 5.09999C8.04789 5.13749 7.99789 5.17186 8.03226 5.24061C8.09476 5.28436 8.10726 5.25624 8.14164 5.24686C8.26664 5.18436 8.36039 4.91561 8.36039 4.91561C8.36351 4.81561 8.30726 4.82186 8.26976 4.84686L8.17289 4.91249C8.11039 4.92186 7.99476 4.96249 7.93539 4.87186C7.87601 4.76561 7.87601 4.61249 7.83226 4.50311C7.83226 4.49686 7.75101 4.33124 7.82601 4.32186C7.86351 4.32811 7.94164 4.34999 7.95414 4.28436C7.99164 4.21874 7.87289 4.03436 7.78851 3.94061C7.71664 3.86249 7.61664 3.85311 7.51976 3.93436C7.45101 3.99686 7.46039 4.06561 7.44789 4.13124C7.43603 4.17827 7.43552 4.22744 7.44638 4.27471C7.45725 4.32197 7.47919 4.36598 7.51039 4.40311C7.57914 4.53436 7.70101 4.70624 7.66039 4.94999C7.66039 4.94999 7.58851 5.06249 7.46351 5.04686C7.41039 5.03749 7.32601 5.01561 7.28226 4.67811C7.24789 4.42811 7.28851 4.07186 7.18226 3.90624C7.14164 3.80311 7.11351 3.70624 7.01976 3.87811C6.99476 3.94686 6.88539 4.04999 6.96351 4.25936C7.03744 4.44804 7.05904 4.65318 7.02601 4.85311C6.97914 4.92186 6.96976 4.94374 6.91039 5.00936C6.82914 5.10311 6.73851 5.07811 6.66976 5.04374C6.60726 5.00311 6.55726 4.98124 6.52601 4.84061C6.53226 4.62186 6.54476 4.26249 6.50414 4.18749C6.44476 4.06874 6.34789 4.11249 6.30726 4.14999C6.12137 4.3565 5.99689 4.61086 5.94789 4.88436C5.89164 5.06561 5.83226 5.01249 5.79164 4.94061C5.69164 4.84686 5.68226 4.10624 5.56039 4.22811Z" fill="white"/>
<path fill-rule="evenodd" clip-rule="evenodd" d="M6.14786 5.44063C6.23848 5.37813 6.19786 5.33438 6.32911 5.46563C6.49852 5.76538 6.59687 6.10001 6.61661 6.44376C6.61036 6.52501 6.66661 6.57501 6.69473 6.55626C6.70723 6.36876 7.16661 6.10626 7.58848 6.06876C7.65098 6.05313 7.61973 5.93126 7.62911 5.86876C7.60411 5.63438 7.76036 5.42188 7.97911 5.40625C8.27911 5.45 8.37911 5.60938 8.38536 5.85001C8.35098 6.31876 7.86348 6.39688 7.59161 6.43438C7.55098 6.45001 7.53223 6.46876 7.59161 6.49063L8.73536 6.49688L8.79473 6.52813C8.80098 6.55938 8.77598 6.53438 8.73223 6.60938C8.66931 6.71992 8.62994 6.84227 8.61661 6.96876C8.27598 7.08126 7.92286 7.12501 7.56661 7.17189C7.44161 7.23439 7.37911 7.31876 7.40411 7.41251C7.44786 7.51564 7.72286 7.62189 7.72286 7.62501C7.77598 7.65626 7.83536 7.73439 7.70723 7.89376C7.15098 7.86876 6.71661 7.63126 6.56661 7.29689C6.52286 7.26251 6.47286 7.29689 6.44161 7.34064C6.22286 7.62189 6.01036 7.87189 5.63848 8.00939C5.41973 8.06564 5.19161 7.97501 5.08536 7.83126C5.01348 7.74689 5.01661 7.65626 4.99161 7.63751C4.86973 7.69064 3.83848 8.12814 3.96973 7.92189C4.21973 7.65626 4.65723 7.45626 5.03848 7.19376C5.06661 7.10314 5.11661 6.80313 5.26661 6.70626C5.27598 6.70626 5.24473 6.88126 5.24786 6.95626C5.24786 7.01876 5.24161 7.04064 5.25411 7.02501C5.28223 7.00939 5.74473 6.64376 5.78536 6.53126C5.82911 6.46876 5.79473 6.30626 5.79473 6.30001C5.70723 6.07501 5.58536 6.05626 5.54161 5.94376C5.50098 5.79688 5.51973 5.62813 5.60411 5.57813C5.67911 5.5125 5.76661 5.51875 5.85098 5.59375C5.94473 5.67813 6.02598 5.84376 6.05098 5.96563C6.03536 6.01251 5.92598 5.93438 5.89473 5.95626C5.95488 6.02538 5.99488 6.1097 6.01036 6.20001C6.07286 6.45626 6.05411 6.55626 5.99161 6.72188C5.78536 7.15626 5.52286 7.28439 5.29161 7.44689C5.28536 7.44689 5.28223 7.55626 5.36661 7.61564C5.39786 7.64689 5.51973 7.66251 5.66036 7.61564C5.96079 7.44879 6.20372 7.19497 6.35723 6.88751C6.38378 6.65356 6.35817 6.41663 6.28223 6.19376C6.19161 5.98438 6.08536 5.68751 6.08536 5.68126C6.08223 5.55 6.09161 5.50625 6.14786 5.44063ZM3.15411 4.23437C3.28536 4.29688 3.53536 4.26875 3.52286 4.05625L3.51661 3.95937C3.49161 3.89687 3.41661 3.9125 3.40098 3.975C3.39473 3.99687 3.41036 4.03125 3.39161 4.04062C3.37911 4.05312 3.33848 4.04687 3.33848 3.9875C3.33848 3.96875 3.32598 3.95 3.31661 3.9375C3.31036 3.93125 3.30411 3.93125 3.28848 3.93125C3.26973 3.93125 3.26973 3.93437 3.26036 3.95C3.25723 3.96562 3.25098 3.98125 3.25098 4C3.25098 4.02187 3.23848 4.02812 3.22598 4.03125C3.20723 4.03125 3.21036 4.03125 3.19473 4.025C3.18848 4.01562 3.17911 4.0125 3.17911 3.99375L3.16973 3.94375C3.16348 3.93437 3.15098 3.92812 3.13848 3.925C3.06661 3.925 3.06036 4.00937 3.06661 4.04062C3.06036 4.04687 3.05723 4.19375 3.15411 4.23437Z" fill="white"/>
<path fill-rule="evenodd" clip-rule="evenodd" d="M7.01353 5.86563C7.14478 5.92813 7.4604 5.89376 7.38228 5.69063L7.37603 5.59063C7.3479 5.52813 7.27603 5.54376 7.2604 5.60938C7.25415 5.62813 7.26978 5.66251 7.2479 5.67188C7.23853 5.68438 7.19478 5.67813 7.1979 5.62188C7.1979 5.60313 7.1854 5.58126 7.17603 5.56876C7.16665 5.56563 7.16353 5.56251 7.14478 5.56251C7.12915 5.56251 7.12915 5.56876 7.11978 5.58438C7.11353 5.60001 7.1104 5.61563 7.1104 5.63438C7.10728 5.65313 7.0979 5.65938 7.08228 5.66563C7.06665 5.66563 7.06978 5.66563 7.05728 5.65626C7.0479 5.64688 7.03853 5.64376 7.03853 5.62813L7.02915 5.57813C7.0229 5.56876 7.0104 5.56251 6.9979 5.55938C6.92603 5.55938 6.91978 5.64063 6.9229 5.67188C6.91978 5.67813 6.91665 5.82813 7.01665 5.86563H7.01353ZM9.26352 5.19063C9.39477 5.25313 9.64164 5.22501 9.63227 5.01563L9.62602 4.91563C9.59789 4.85313 9.52602 4.86876 9.51039 4.93126C9.50414 4.95313 9.51977 4.98751 9.4979 5.00001C9.48852 5.00938 9.44477 5.00313 9.44789 4.94376C9.44789 4.92501 9.43539 4.90626 9.42602 4.89376C9.41664 4.88751 9.41352 4.88751 9.39477 4.88751C9.37914 4.88751 9.37915 4.89376 9.36977 4.90938L9.3604 4.95626C9.35727 4.97813 9.34789 4.98751 9.33227 4.98751C9.31664 4.98751 9.31977 4.98751 9.30727 4.98126C9.2979 4.97188 9.28852 4.96876 9.28852 4.95313C9.28852 4.93751 9.2854 4.91251 9.27915 4.90001C9.2729 4.89063 9.2604 4.88751 9.2479 4.88438C9.17602 4.88438 9.16977 4.96563 9.1729 4.99688C9.16977 5.00313 9.16665 5.15001 9.26665 5.19063H9.26352ZM10.4291 6.88751C10.201 7.14688 10.301 7.57501 10.3541 7.66876C10.4291 7.81876 10.4885 7.91564 10.6354 7.99064C10.7698 8.08751 10.876 8.02814 10.9323 7.95939C11.0666 7.81876 11.0698 7.45939 11.1323 7.39064C11.176 7.25938 11.2885 7.28126 11.3416 7.34063C11.3913 7.41119 11.458 7.46814 11.5354 7.50626C11.6604 7.61564 11.8104 7.63751 11.9604 7.53751C12.0604 7.47814 12.126 7.40626 12.1854 7.25938C12.2479 7.08438 12.2166 6.27188 12.201 5.79063L12.0698 5.11876C12.0698 5.11251 12.0541 4.80001 12.0385 4.72813C12.0385 4.69688 12.0291 4.68751 12.0604 4.69063C12.0948 4.72188 12.0979 4.72188 12.1229 4.73125C12.1541 4.73751 12.1854 4.67813 12.1635 4.62813L11.851 4.04688C11.826 4.02188 11.7916 3.99688 11.751 4.05313C11.727 4.07483 11.708 4.10137 11.695 4.131C11.6821 4.16064 11.6756 4.19268 11.676 4.225C11.6854 4.3625 11.7073 4.50313 11.7166 4.64063L11.8416 5.34688C11.8823 5.84688 11.8916 6.25938 11.9323 6.76251C11.926 6.97501 11.8604 7.15938 11.7979 7.18751C11.7979 7.18751 11.7041 7.24063 11.6416 7.18126C11.5948 7.16251 11.4104 6.87188 11.4104 6.87188C11.3166 6.78751 11.2541 6.80938 11.1885 6.87188C11.001 7.05313 10.9198 7.38438 10.7916 7.61564C10.7604 7.66876 10.6666 7.70939 10.5666 7.61251C10.3104 7.25938 10.4604 6.75938 10.4291 6.88751ZM9.3229 3.95938C9.44164 4.00625 9.52289 4.24688 9.4979 4.36563C9.47289 4.50625 9.41039 4.66251 9.36664 4.64376C9.31665 4.62501 9.39789 4.5 9.35102 4.36875C9.32602 4.28125 9.16352 4.125 9.18227 4.08125C9.15102 3.98438 9.25102 3.94063 9.3229 3.95625V3.95938Z" fill="white"/>
<path fill-rule="evenodd" clip-rule="evenodd" d="M10.8104 7.03124C10.8322 6.74374 10.7916 6.56874 10.7854 6.39999C10.7791 6.23124 10.5947 4.94374 10.5572 4.81874C10.5104 4.57499 10.7354 4.78749 10.7104 4.64374C10.6322 4.46874 10.4416 4.20937 10.3822 4.05624C10.3447 3.99374 10.3604 3.93124 10.2791 4.04062C10.2092 4.23239 10.1846 4.43775 10.2072 4.64062C10.401 5.64999 10.5979 6.48749 10.5666 7.44687C10.6604 7.44687 10.7635 7.23749 10.8104 7.03124ZM12.8229 4.36562C12.9322 4.41874 12.9947 4.71874 12.9822 4.80312C12.9604 4.95937 12.9041 5.12812 12.8635 5.10624C12.8166 5.08749 12.8729 4.87499 12.851 4.80937C12.826 4.71562 12.6791 4.54687 12.6947 4.49687C12.6635 4.39062 12.7572 4.34687 12.8229 4.36562ZM4.83225 6.48749C4.93537 6.52812 4.99787 6.74687 4.9885 6.80937C4.9635 6.92499 4.91037 7.04999 4.86975 7.03124C4.82912 7.01874 4.87912 6.86249 4.86037 6.81249C4.851 6.69687 4.70725 6.63437 4.71037 6.58437C4.68537 6.49062 4.77287 6.47499 4.83537 6.48749H4.83225Z" fill="white"/>
<path fill-rule="evenodd" clip-rule="evenodd" d="M7.31972 6.81876C7.45097 6.82501 7.5166 6.93126 7.39472 6.97501C7.26972 7.01564 7.1541 7.05001 7.15097 7.22501C7.19785 7.47501 7.08847 7.38751 7.02597 7.35626C6.95097 7.30001 6.73847 7.16876 6.70722 6.88751C6.7041 6.82189 6.75722 6.76251 6.8416 6.76251C6.9666 6.79689 7.1541 6.80001 7.31972 6.81876Z" fill="#1B9D00"/>
<path fill-rule="evenodd" clip-rule="evenodd" d="M2.08534 3.8875C2.23534 3.93125 2.24472 4.15625 2.23534 4.22187C2.21347 4.34062 2.16034 4.46875 2.12284 4.45312C2.07909 4.4375 2.12284 4.275 2.10097 4.225C2.07909 4.15625 1.95097 4.025 1.96347 3.9875C1.93534 3.90937 2.02597 3.87187 2.08534 3.8875ZM5.08222 4.9375C4.96347 5 4.91972 5.1875 4.99159 5.3C5.06034 5.39375 5.16659 5.35938 5.17909 5.35938C5.29472 5.37188 5.36347 5.14375 5.36347 5.14375C5.36347 5.14375 5.36659 5.08125 5.23222 5.20313C5.17284 5.2125 5.16972 5.19063 5.15409 5.15938C5.13979 5.09988 5.14527 5.03734 5.16972 4.98125C5.19159 4.925 5.14784 4.9 5.08222 4.9375ZM5.95722 3.8C5.89472 3.84062 5.77909 3.9625 5.77597 4.1C5.77284 4.17812 5.75722 4.17812 5.80722 4.225C5.84784 4.28125 5.88222 4.27812 5.95722 4.2375C5.97591 4.22573 5.99195 4.21021 6.00432 4.19192C6.01669 4.17363 6.02513 4.15297 6.02909 4.13125C6.04784 4.04375 5.93534 4.175 5.92284 4.075C5.89784 3.98125 5.96972 3.94375 6.03847 3.85625C6.03847 3.79375 6.03847 3.75312 5.95409 3.8H5.95722ZM6.65722 3.925C6.62967 4.03879 6.61293 4.15493 6.60722 4.27187C6.58847 4.35937 6.70097 4.39687 6.74784 4.28437C6.82284 4.08125 6.82284 3.99375 6.82909 3.90937C6.80722 3.775 6.71659 3.77812 6.65722 3.925ZM11.0947 6.18438C11.1072 6.16875 11.7197 5.73438 11.7197 5.73438C11.7822 5.7125 11.7666 5.95938 11.7385 5.95625C11.5485 6.13932 11.33 6.29025 11.0916 6.40313C11.0603 6.425 11.0322 6.2375 11.0916 6.18438H11.0947ZM11.6478 6.17813C11.7572 6.23125 11.801 6.54688 11.7885 6.63125C11.7885 6.8 11.6853 6.93125 11.6416 6.9125C11.5978 6.89063 11.6478 6.70313 11.626 6.6375C11.601 6.54375 11.5103 6.37188 11.526 6.32188C11.4947 6.21563 11.5822 6.15938 11.651 6.17813H11.6478ZM8.02284 7.53438C8.07353 7.47521 8.13247 7.42364 8.19784 7.38125C8.26034 7.35 8.31659 7.40625 8.31347 7.40313C8.32284 7.46563 8.27597 7.51875 8.29159 7.6C8.30409 7.63125 8.31347 7.66875 8.37284 7.65625C8.46972 7.57813 8.56034 7.57188 8.65409 7.56875C8.73222 7.57188 8.73534 7.7 8.68534 7.7C8.50722 7.7375 8.42909 7.78751 8.30097 7.83438C8.23847 7.87188 8.18847 7.82501 8.18847 7.82188C8.18847 7.81876 8.15409 7.78751 8.17597 7.70625C8.18222 7.64375 8.15722 7.60625 8.10097 7.6125C8.06347 7.63751 8.02597 7.65 8.00722 7.60313C7.99784 7.57188 7.99472 7.55313 8.02284 7.53438ZM12.2916 7.70313C12.3166 7.73438 12.3353 7.76563 12.2885 7.82188L12.1728 7.92188C12.1541 7.95313 12.1416 8.00938 12.2041 8.02501C12.3166 8.05626 12.5791 7.88438 12.5791 7.88126C12.6228 7.85001 12.6103 7.78751 12.6041 7.78751C12.5791 7.75938 12.5228 7.77813 12.4853 7.77188C12.4666 7.77188 12.4072 7.76563 12.4353 7.70938C12.4563 7.68177 12.4732 7.65124 12.4853 7.61875C12.501 7.58125 12.4853 7.55625 12.4228 7.53438C12.3572 7.52188 12.3291 7.52813 12.2572 7.53438C12.2197 7.54063 12.2072 7.55938 12.1978 7.60625C12.201 7.67813 12.2447 7.675 12.2916 7.7V7.70313Z" fill="white"/>
<path fill-rule="evenodd" clip-rule="evenodd" d="M8.04471 5.92813C8.02909 5.95938 7.97284 5.95938 7.91971 5.92813C7.86659 5.89688 7.83534 5.84688 7.85409 5.81876C7.87284 5.79063 7.92596 5.79063 7.97909 5.81876C8.03221 5.84688 8.06034 5.90001 8.04471 5.92813ZM5.26347 4.25313C5.23222 4.2625 5.18847 4.23438 5.16972 4.19063C5.15097 4.14688 5.16034 4.10938 5.19159 4.1C5.22284 4.09063 5.26347 4.12188 5.28534 4.1625C5.30722 4.20313 5.29472 4.24688 5.26034 4.25625L5.26347 4.25313Z" fill="#259F00"/>
<path fill-rule="evenodd" clip-rule="evenodd" d="M10.7666 11.7188C11.0604 11.7312 11.3354 11.7188 11.626 11.7344C11.6791 11.7812 11.6416 11.8906 11.6072 11.8844L11.3635 11.875C11.3604 11.7812 11.1229 11.7969 11.1291 11.8781C11.001 11.8937 10.8854 11.875 10.7541 11.8687C10.7166 11.8219 10.7229 11.7375 10.7666 11.7188Z" fill="#209000"/>
</svg>
