<svg width="94" height="50" viewBox="0 0 94 50" fill="none" xmlns="http://www.w3.org/2000/svg">
<g clip-path="url(#clip0)">
<path d="M59.7742 7.45828C59.7742 6.51181 60.0128 6.2738 60.9616 6.2738H67.7835C70.3053 6.2738 71.2236 7.10128 71.2236 9.3208C71.2236 10.8595 70.8075 11.7174 68.9404 12.8715L62.3571 16.8649C61.9409 17.1306 61.7356 17.3963 61.7356 17.6647C61.7356 18.019 62.063 18.1989 62.6844 18.1989H70.039C70.9878 18.1989 71.2264 18.4341 71.2264 19.3833V19.768C71.2264 20.7145 70.9878 20.9525 70.039 20.9525H62.3571C60.0739 20.9525 58.9475 19.9479 58.9475 17.936C58.9475 16.4858 59.6882 15.3013 61.2002 14.3853L67.7253 10.3918C68.1997 10.0652 68.4382 9.79957 68.4382 9.53389C68.4382 9.20733 68.1109 9.03021 67.4894 9.03021H60.9644C60.0156 9.03021 59.777 8.79498 59.777 7.84573V7.45828H59.7742Z" fill="#8D5DA7"/>
<path d="M74.3666 0.7943C75.1073 0.0553832 76.2947 0.0553832 77.0077 0.7943C77.7484 1.50554 77.7484 2.68725 77.0077 3.42894C76.2947 4.14018 75.1101 4.14018 74.3666 3.42894C73.6231 2.68725 73.6231 1.50554 74.3666 0.7943ZM74.1585 7.60783C74.1585 6.54235 74.4248 6.27667 75.4929 6.27667H75.8785C76.9466 6.27667 77.213 6.54235 77.213 7.60783V19.6187C77.213 20.6842 76.9466 20.9498 75.8785 20.9498H75.4929C74.4248 20.9498 74.1585 20.6842 74.1585 19.6187V7.60783Z" fill="#8D5DA7"/>
<path d="M94.0001 14.9443C94.0001 19.1758 91.5088 21.2763 87.2364 21.2763C82.6978 21.2763 80.4451 19.1758 80.4451 14.9443V12.401C80.4451 8.11143 82.5202 5.95003 86.6428 5.95003C88.7179 5.95003 90.1716 6.60038 90.9734 7.87342V1.57188C90.9734 0.5064 91.2397 0.240723 92.3078 0.240723H92.6629C93.731 0.240723 93.9973 0.5064 93.9973 1.57188V14.9443H94.0001ZM83.4995 14.8862C83.4995 17.3714 84.2708 18.4064 87.2059 18.4064C90.1411 18.4064 90.9734 17.341 90.9734 14.8862V12.3429C90.9734 9.8577 90.0828 8.79222 87.2059 8.79222C84.329 8.79222 83.4995 9.8577 83.4995 12.3429V14.8862Z" fill="#8D5DA7"/>
<path d="M77.2132 39.7797C77.2132 42.3535 76.8581 44.3959 76.1451 45.846C75.4626 47.2962 74.5138 48.5084 73.2987 49.4853C72.705 49.9585 72.4387 49.8395 71.8755 49.012L71.6369 48.6578C71.132 47.8303 71.132 47.5619 71.7257 47.0001C73.357 45.5499 74.1865 43.2142 74.1865 39.9873V32.0391C74.1865 30.9736 74.4528 30.7079 75.5209 30.7079H75.876C76.9441 30.7079 77.2104 30.9736 77.2104 32.0391V39.7797H77.2132ZM74.3668 25.2256C75.1075 24.4867 76.2949 24.4867 77.0079 25.2256C77.7486 25.9368 77.7486 27.1185 77.0079 27.8574C76.2949 28.5687 75.1103 28.5687 74.3668 27.8574C73.6538 27.1185 73.6538 25.9368 74.3668 25.2256Z" fill="#8D5DA7"/>
<path d="M69.8834 36.9402V40.8147C69.8834 44.3073 68.0136 46.0535 64.2767 46.0535H60.168C59.1887 46.0535 58.9446 45.81 58.9446 44.8303V44.4318C58.9446 43.4521 59.1887 43.2113 60.168 43.2113H64.2767C66.263 43.2113 66.829 42.4115 66.829 40.6071V36.9679C66.829 34.5132 65.8192 33.5667 62.9728 33.5667C62.1128 33.5667 61.372 33.6552 60.7784 33.8628C59.8296 34.1285 59.5327 33.9209 59.5327 32.8859V32.4984C59.5327 31.5215 59.7408 31.2558 60.7201 31.0206C61.5219 30.8158 62.2903 30.7245 63.0338 30.7245C64.6068 30.7245 65.9163 31.0068 66.9511 31.5381C68.8958 32.5372 69.8834 34.4108 69.8834 36.9402Z" fill="#8D5DA7"/>
<path d="M30.8386 22.9756C30.145 22.4387 29.482 21.852 28.8495 21.221C28.2169 20.59 27.6288 19.9258 27.0906 19.234C29.6706 15.1353 30.9579 10.4251 30.8192 5.53496C30.7165 1.90126 27.8452 -0.00276446 25.0598 3.01256e-06C22.2773 -0.00276446 19.4059 1.90126 19.3033 5.53496C19.1645 10.4251 20.4518 15.1436 23.0318 19.234C22.4936 19.9258 21.9055 20.5873 21.273 21.2182C20.6404 21.8492 19.9774 22.4359 19.2811 22.9728C15.1779 20.3991 10.4506 19.115 5.54851 19.2533C1.90591 19.3585 -0.00277123 22.2228 3.01994e-06 24.9986C-0.00277123 27.7744 1.90591 30.6415 5.55128 30.7411C10.4534 30.8795 15.1779 29.5954 19.2838 27.0216C19.9774 27.5585 20.6432 28.148 21.2757 28.7762C21.9083 29.4072 22.4964 30.0686 23.0346 30.7605C20.4546 34.8536 19.1645 39.5694 19.306 44.4595C19.4087 48.096 22.28 49.9972 25.0626 49.9945C27.8452 49.9972 30.7193 48.0932 30.8192 44.4595C30.9551 39.5721 29.6706 34.8564 27.0906 30.7605C27.6316 30.0686 28.2197 29.4044 28.8495 28.7735C29.4792 28.1452 30.145 27.5585 30.8386 27.0189C34.9473 29.5954 39.6718 30.8767 44.5712 30.7384C48.2165 30.636 50.1224 27.7716 50.1197 24.9958C50.1224 22.2201 48.2137 19.353 44.5712 19.2533C39.669 19.1177 34.9417 20.4018 30.8386 22.9756ZM22.6296 5.62905C22.6795 3.92428 23.9695 3.31821 25.0598 3.31821C26.1501 3.31821 27.4429 3.92428 27.4901 5.62905C27.5955 9.32086 26.7604 12.8964 25.0598 16.1039C23.362 12.8992 22.5269 9.32363 22.6296 5.62905ZM5.64283 27.4229C3.93389 27.3731 3.32633 26.0862 3.32633 24.9986C3.32911 23.9082 3.93389 22.6241 5.64283 22.5743C9.34369 22.4691 12.9308 23.3049 16.1434 24.9986C12.9308 26.6951 9.34646 27.5281 5.64283 27.4229ZM27.4928 44.3682C27.4429 46.0729 26.1529 46.679 25.0626 46.679C23.9723 46.679 22.6823 46.0729 22.6324 44.3682C22.5297 40.6764 23.3648 37.098 25.0626 33.8933C26.7604 37.1008 27.5983 40.6791 27.4928 44.3682ZM28.0532 24.9986C27.5178 25.4497 26.9963 25.9285 26.4969 26.4266C25.9948 26.9275 25.5176 27.4478 25.0626 27.982C24.6104 27.4451 24.1305 26.9275 23.6311 26.4294C23.1289 25.9285 22.6102 25.4497 22.072 24.9986C22.6102 24.5475 23.1289 24.0687 23.6311 23.5678C24.1305 23.0697 24.6132 22.5494 25.0626 22.0153C25.5148 22.5494 25.9948 23.0697 26.4969 23.5706C26.9963 24.0687 27.5178 24.5475 28.0532 24.9986ZM46.7933 24.9986C46.7933 26.0862 46.1858 27.3731 44.4768 27.4229C40.776 27.5281 37.1916 26.6923 33.9763 24.9986C37.1889 23.3049 40.776 22.4719 44.4768 22.5743C46.1858 22.6241 46.7933 23.911 46.7933 24.9986Z" fill="#FFD04C"/>
</g>
<defs>
<clipPath id="clip0">
<rect width="94" height="50" fill="white"/>
</clipPath>
</defs>
</svg>
