<svg width="64" height="29" viewBox="0 0 64 29" fill="none" xmlns="http://www.w3.org/2000/svg">
<g clip-path="url(#clip0)">
<path d="M4.47394 9.39928C5.26723 9.61061 5.99876 9.93248 6.81156 9.91622C7.64712 9.89997 7.94623 9.62361 7.94623 8.76529C7.95273 6.07655 7.96248 3.3878 7.93648 0.699052C7.93322 0.191864 8.0145 -0.0519763 8.58021 0.0390575C9.02563 0.110584 9.63361 -0.149512 9.8937 0.149599C10.1148 0.406444 9.96523 0.991661 9.96523 1.43057C9.96848 3.14721 9.97823 4.86385 9.95873 6.57723C9.95547 6.95437 10.0628 7.04866 10.4302 7.04216C11.7762 7.0194 13.1221 7.01289 14.4649 7.04541C14.9201 7.05516 14.9851 6.8991 14.9461 6.50246C14.8973 6.01477 14.8876 5.51734 15.0306 5.03291C15.4533 3.61213 16.5262 2.92938 18.2103 3.01391C19.54 3.08219 20.5284 3.97302 20.8145 5.29951C20.9055 5.72542 20.9478 6.14482 20.8698 6.55773C20.8113 6.86659 20.86 6.94787 21.1819 6.94462C22.827 6.93161 24.4754 6.93161 26.1205 6.94462C26.4326 6.94787 26.4781 6.86659 26.4586 6.55773C26.4131 5.87497 26.3481 5.18247 26.6277 4.52247C27.0373 3.56011 27.8339 3.16997 28.8092 3.13746C29.9764 3.09844 31.1468 3.13421 32.314 3.1212C32.5904 3.11795 32.7107 3.16347 32.7204 3.48534C32.7627 4.99064 32.7724 4.99064 31.2704 4.99064C30.5259 4.99064 29.7813 4.98089 29.0401 4.9939C28.3996 5.0069 28.2273 5.19547 28.224 5.8262C28.2142 6.93812 28.2142 6.93812 29.3294 6.93812C31.2606 6.93812 33.1886 6.93812 35.1198 6.93812C36.3065 6.93812 36.7129 6.56423 36.7292 5.35803C36.7552 3.76494 36.7552 2.1751 36.7259 0.582009C36.7194 0.143096 36.8234 -0.00971059 37.2721 0.0358063C37.7435 0.0845744 38.384 -0.113749 38.6539 0.12684C38.9692 0.406444 38.7482 1.05668 38.7514 1.54437C38.7644 2.92288 38.8034 4.30464 38.7417 5.68315C38.6766 7.12669 38.0426 8.41416 36.4008 8.80431C36.0204 8.89534 35.6335 8.89209 35.2466 8.89209C26.9625 8.87584 18.6752 8.86933 10.3911 8.83682C9.84818 8.83357 9.92296 9.18795 9.87094 9.47406C9.67912 10.5632 9.13292 11.3565 8.06327 11.7434C7.11717 12.0848 6.18082 11.9027 5.25423 11.6654C4.84783 11.5613 4.30163 11.5028 4.10981 11.2232C3.91473 10.9404 4.22685 10.4429 4.32113 10.0398C4.37315 9.83819 4.41867 9.63337 4.47394 9.39928ZM18.1745 7.0324C19.1174 7.0324 19.1206 7.0324 19.1239 6.08955C19.1239 5.73517 19.1206 5.38079 18.8215 5.11419C18.4184 4.75331 17.6316 4.70129 17.1406 5.01015C16.692 5.29301 16.4416 6.06029 16.6887 6.78856C16.8123 7.08117 17.3617 7.02915 17.7519 7.0259" fill="#999999"/>
<path d="M33.4386 16.7632C33.3898 17.0689 33.0939 17.0981 32.8956 17.2054C32.0763 17.6508 31.4098 18.3206 30.5742 18.7367C23.8507 18.7367 17.1272 18.74 10.4038 18.727C9.98435 18.727 9.8413 18.7985 9.83479 19.2602C9.80878 20.7817 9.048 21.8514 7.76703 22.1505C6.55433 22.4334 5.39364 22.1277 4.26222 21.6953C4.13543 21.6466 4.10292 21.5783 4.12242 21.458C4.13218 21.3897 4.12567 21.3149 4.14193 21.2467C4.24597 20.8208 4.22646 20.242 4.49956 20.0177C4.78892 19.7739 5.2766 20.2095 5.69601 20.2713C6.0764 20.3266 6.44378 20.4371 6.84043 20.4274C7.5622 20.4046 7.94584 20.0567 7.95234 19.3285C7.9621 17.8979 7.9686 16.4641 7.94584 15.0336C7.93934 14.663 8.03688 14.5362 8.41076 14.5687C8.86593 14.6109 9.47716 14.4224 9.74376 14.6532C10.0559 14.9231 9.83479 15.5473 9.84455 16.0187C9.8608 16.9193 9.85105 16.9193 10.7646 16.9193C15.4529 16.9193 20.1411 16.9128 24.8326 16.9291C25.2585 16.9291 25.3951 16.8478 25.3918 16.3926C25.3853 15.0791 25.3398 15.0076 24.0426 15.0076C23.246 15.0076 22.4495 14.9978 21.6529 15.0141C21.3668 15.0206 21.2595 14.9588 21.2498 14.6402C21.214 13.1999 21.2043 13.1999 22.651 13.1999C23.3956 13.1999 24.1369 13.1902 24.8814 13.2064C26.2046 13.2324 27.1377 14.1558 27.1865 15.4725C27.1897 15.5245 27.1865 15.5798 27.1865 15.6318C27.1962 16.747 27.1962 16.747 28.2951 16.7502C30.0053 16.7502 31.7219 16.7567 33.4386 16.7632Z" fill="#999999"/>
<path d="M41.8432 7.89398C41.1735 7.96551 40.5005 8.03703 39.8307 8.10856C39.8275 5.54661 39.8307 2.98791 39.8145 0.425958C39.8145 0.136601 39.8827 0.0195573 40.1916 0.0390645C40.7183 0.0715766 41.3198 0.061823 41.7359 0.078079C41.8855 0.0845814 41.8302 1.12172 41.8334 1.64191C41.8465 3.72593 41.8432 5.80996 41.8432 7.89398Z" fill="#999999"/>
<path d="M36.5565 16.0708C37.2652 15.7912 37.9903 15.5961 38.751 15.5376C38.6698 17.2087 37.8472 18.2914 36.3582 18.675C36.2411 18.7043 36.1176 18.7238 35.994 18.7238C34.5082 18.7238 33.0224 18.7173 31.5366 18.7108C32.3462 18.0995 33.2012 17.5598 34.0921 17.0787C34.3717 16.9291 34.6578 16.8121 34.9699 16.7633C35.1812 16.7568 35.3926 16.7568 35.6039 16.747C36.0688 16.7243 36.4297 16.5585 36.5565 16.0708Z" fill="#999999"/>
<path d="M38.7645 14.5817C38.0915 14.7963 37.4218 15.0076 36.7488 15.2222C36.7455 13.5803 36.7488 11.9352 36.7325 10.2934C36.7293 10.0008 36.8008 9.89021 37.1097 9.90647C37.6364 9.93898 38.3256 9.73415 38.6475 9.99425C38.9856 10.2674 38.7418 10.9859 38.7515 11.5061C38.771 12.5334 38.7645 13.5576 38.7645 14.5817Z" fill="#999999"/>
<path d="M39.8177 15.3327C40.494 15.2839 41.167 15.1701 41.8465 15.2254C41.8432 16.2658 41.8302 17.3061 41.8465 18.3465C41.8497 18.6456 41.7685 18.7464 41.4661 18.7269C40.9394 18.6977 40.2729 18.8732 39.9283 18.6391C39.7527 18.5188 39.8405 17.6508 39.8242 17.1273C39.8047 16.5324 39.8177 15.9309 39.8177 15.3327Z" fill="#999999"/>
<path d="M39.8244 10.2349C40.5006 10.6283 41.1736 11.0184 41.8499 11.4118C41.8499 12.2929 41.8466 13.1707 41.8466 14.0518C41.1704 14.1591 40.4941 14.2631 39.8179 14.3704C39.8211 12.9886 39.8211 11.6134 39.8244 10.2349Z" fill="#999999"/>
<path d="M39.8175 15.3328C39.4631 15.4043 39.0925 15.3848 38.7544 15.5376C37.9936 15.5962 37.2653 15.7912 36.5598 16.0708C36.0136 16.2627 35.4219 16.3407 34.9765 16.7633C34.6644 16.8154 34.3783 16.9292 34.0987 17.0787C33.2046 17.5599 32.3495 18.0996 31.5432 18.7108C29.573 20.3202 27.6873 22.0271 25.5772 23.4641C23.6753 24.7581 21.6986 25.9155 19.4877 26.6015C18.7562 26.8291 17.9889 26.9494 17.2607 27.1542C16.2788 27.4273 15.2937 27.6614 14.2923 27.7882C9.78613 28.3702 5.48804 27.876 1.66462 25.1677C0.822555 24.5695 0.305613 23.9713 0 23.2885C1.90196 23.2885 3.73239 23.2918 5.56607 23.2853C5.74813 23.2853 5.85542 23.3665 5.97247 23.4868C7.61758 25.2327 9.73086 26.0358 12.023 26.4845C13.9022 26.8518 15.7911 26.8063 17.6671 26.556C19.2667 26.3447 20.7427 25.7172 22.1375 24.9011C25.0733 23.1877 27.8466 21.25 30.3793 18.9742C30.4541 18.9059 30.5093 18.8149 30.5743 18.7336C31.4099 18.3142 32.0764 17.6444 32.8957 17.2023C33.094 17.095 33.3899 17.069 33.4387 16.7601C33.8906 16.7113 34.232 16.409 34.6221 16.2269C35.3341 15.8953 36.0396 15.5572 36.7484 15.2223C37.4214 15.0077 38.0911 14.7964 38.7641 14.5818C39.1153 14.5103 39.4664 14.4387 39.8175 14.3672C40.4938 14.2599 41.17 14.1559 41.8463 14.0486C50.0068 13.4601 56.7531 16.8739 63.0994 21.5004C62.732 20.8664 62.3614 20.2324 61.994 19.5984C62.0265 19.5659 62.059 19.5366 62.0948 19.5041C62.7808 20.4145 63.418 21.3606 64.0065 22.4139C62.2736 22.5472 60.6187 22.5472 58.9606 22.5472C58.7753 22.5472 58.6778 22.4204 58.5607 22.3229C55.7647 19.9885 52.7248 18.0638 49.3143 16.7471C46.9149 15.8205 44.4342 15.258 41.8495 15.2255C41.1635 15.1703 40.4905 15.284 39.8175 15.3328Z" fill="#999999"/>
<path d="M41.8425 7.89403C43.5949 7.86802 45.3278 8.05008 47.0249 8.502C49.8828 9.26603 52.487 10.521 54.8994 12.2539C57.0159 13.7722 58.8496 15.5506 60.5337 17.5078C60.6247 17.6119 60.6898 17.7419 60.7645 17.859C60.7353 17.8882 60.7028 17.9207 60.6735 17.95C57.5361 14.8451 53.924 12.6018 49.4991 11.88C47.6232 11.5744 45.7375 11.5711 43.92 12.2571C43.6957 12.3417 43.5299 12.3254 43.3316 12.2084C42.8439 11.9288 42.3432 11.6719 41.849 11.4086C41.1728 11.0152 40.4998 10.625 39.8235 10.2316C39.1213 9.835 38.4157 9.4351 37.668 9.01244C38.315 8.46299 39.1375 8.43698 39.83 8.1086C40.4998 8.03708 41.1728 7.96555 41.8425 7.89403Z" fill="#999999"/>
<path d="M61.0186 18.1288C61.0739 18.2166 61.1324 18.3044 61.1877 18.3889C61.1617 18.4181 61.1389 18.4474 61.1129 18.4767C61.0544 18.3889 60.9926 18.3044 60.9341 18.2166C60.9633 18.1873 60.9926 18.158 61.0186 18.1288Z" fill="#999999"/>
<path d="M61.4451 18.6783C61.5003 18.7596 61.5588 18.8409 61.6141 18.9254C61.5881 18.9514 61.5588 18.9775 61.5328 19.0035C61.4808 18.9157 61.4256 18.8279 61.3735 18.7401C61.3963 18.7174 61.4223 18.6979 61.4451 18.6783Z" fill="#999999"/>
<path d="M60.7647 17.859C60.82 17.9175 60.8752 17.9728 60.9272 18.0313C60.898 18.0541 60.8687 18.0768 60.8395 18.0996C60.7842 18.0508 60.7289 18.0021 60.6704 17.9533C60.7029 17.9208 60.7354 17.8883 60.7647 17.859Z" fill="#999999"/>
<path d="M61.2886 18.506C61.3407 18.5645 61.3927 18.6198 61.4447 18.6783C61.4219 18.6978 61.3959 18.7173 61.3732 18.7368C61.3179 18.6848 61.2594 18.6295 61.2041 18.5775C61.2334 18.5515 61.2594 18.5287 61.2886 18.506Z" fill="#999999"/>
<path d="M61.614 18.9221C61.666 18.9806 61.718 19.0359 61.7701 19.0944C61.7408 19.1139 61.7148 19.1367 61.692 19.1595C61.64 19.1074 61.5847 19.0522 61.5327 19.0001C61.5587 18.9741 61.588 18.9481 61.614 18.9221Z" fill="#999999"/>
<path d="M61.935 19.3447C61.987 19.4 62.039 19.452 62.091 19.5073C62.0585 19.5365 62.026 19.5691 61.9935 19.6016C61.9447 19.543 61.8959 19.4845 61.8472 19.4228C61.8732 19.3967 61.9024 19.3707 61.935 19.3447Z" fill="#999999"/>
<path d="M60.9307 18.0312C60.96 18.0638 60.9892 18.0963 61.0218 18.1288C60.9925 18.158 60.9665 18.1873 60.9372 18.2166C60.908 18.1776 60.8755 18.1385 60.8462 18.0995C60.8722 18.0768 60.9015 18.054 60.9307 18.0312Z" fill="#999999"/>
<path d="M61.1879 18.3889C61.2204 18.4279 61.2529 18.4637 61.2854 18.5027C61.2562 18.5255 61.2302 18.5515 61.2009 18.5742C61.1716 18.5417 61.1391 18.5092 61.1099 18.4767C61.1391 18.4474 61.1651 18.4182 61.1879 18.3889Z" fill="#999999"/>
<path d="M61.7694 19.0945C61.7954 19.1367 61.8215 19.1758 61.8475 19.218C61.8247 19.2408 61.8019 19.2635 61.7792 19.283C61.7499 19.2408 61.7207 19.2018 61.6914 19.1595C61.7174 19.1367 61.7434 19.114 61.7694 19.0945Z" fill="#999999"/>
<path d="M61.8472 19.218C61.8765 19.2603 61.9058 19.3025 61.935 19.3448C61.9058 19.3708 61.8733 19.3968 61.844 19.4228C61.8245 19.3773 61.8017 19.3286 61.7822 19.283C61.805 19.2603 61.8245 19.2375 61.8472 19.218Z" fill="#999999"/>
</g>
<defs>
<clipPath id="clip0">
<rect width="64" height="28.0026" fill="white"/>
</clipPath>
</defs>
</svg>
