<svg width="48" height="48" viewBox="0 0 48 48" fill="none" xmlns="http://www.w3.org/2000/svg">
<g clip-path="url(#clip0)">
<path d="M10.6566 31.3772C9.44531 29.1909 8.75531 26.6756 8.75531 24C8.75531 15.5812 15.5813 8.75531 24.0002 8.75531C26.6758 8.75531 29.1912 9.44438 31.3765 10.6566L35.7003 6.33281C32.3478 4.10813 28.3249 2.8125 24.0002 2.8125C12.2982 2.8125 2.8125 12.2981 2.8125 24.0001C2.8125 28.3248 4.10812 32.3476 6.33375 35.7001L10.6566 31.3772Z" fill="#999999"/>
<path d="M37.3435 16.6227C38.5548 18.809 39.2448 21.3234 39.2448 23.9999C39.2448 32.4187 32.4187 39.2446 23.9999 39.2446C21.3233 39.2446 18.8089 38.5546 16.6226 37.3434L12.2998 41.6662C15.6524 43.8919 19.6744 45.1875 24 45.1875C35.702 45.1875 45.1877 35.7019 45.1877 23.9999C45.1877 19.6743 43.8921 15.6524 41.6664 12.2999L37.3435 16.6227Z" fill="#999999"/>
<path d="M47.5891 0.41084C47.0397 -0.137598 46.1491 -0.137598 45.5997 0.41084L0.411816 45.5985C-0.136621 46.1479 -0.136621 47.0385 0.411816 47.5879C0.961098 48.1368 1.85191 48.1368 2.40119 47.5879L47.5891 2.40021C48.1376 1.85093 48.1376 0.960309 47.5891 0.41084Z" fill="#999999"/>
</g>
<defs>
<clipPath id="clip0">
<rect width="48" height="48" fill="white"/>
</clipPath>
</defs>
</svg>
