<svg width="48" height="48" viewBox="0 0 48 48" fill="none" xmlns="http://www.w3.org/2000/svg">
<g clip-path="url(#clip0)">
<path d="M0.0122853 23.6681C-0.0344527 10.4835 10.7184 -0.194505 24.3254 0.00306434C37.3342 0.191372 48.3301 10.465 47.9936 24.8443C47.7007 37.2757 37.2002 48.1821 23.5558 47.9969C10.7994 47.8271 -0.405241 37.2386 0.0122853 23.6681ZM24.0076 45.9687C24.4532 46.0366 24.5965 46.0798 24.7398 46.0737C41.3505 45.3482 50.7293 28.6969 43.8744 14.4503C41.8273 10.1933 38.6366 6.99207 34.4738 4.76942C23.5776 -1.04961 11.1048 2.91412 5.02572 12.5827C1.74471 17.8059 0.831759 23.4736 2.26194 29.4625C2.91005 32.1759 3.78872 34.9203 5.83896 36.8836C10.223 41.0789 17.5172 39.9953 20.6175 34.8122C21.113 33.9849 21.5897 33.6361 22.5681 33.8182C24.9704 34.2597 27.2107 33.5805 29.208 32.3735C33.6356 29.7002 35.0253 23.9305 32.4797 19.3617C29.9963 14.9072 24.3036 13.1229 19.6828 15.3548C14.9248 17.6577 12.7936 23.0878 14.7815 27.8634C15.0588 28.5271 15.4452 29.1537 15.6353 29.8391C15.9874 31.0955 15.2676 32.3395 14.0306 32.8057C12.7967 33.2687 11.1702 32.7625 10.6904 31.6419C9.4191 28.6814 8.05435 25.8136 8.77723 22.3469C9.37548 19.479 10.3694 16.8149 12.239 14.6726C15.9344 10.431 20.6331 8.57879 26.4006 9.4339C34.022 10.5637 40.556 17.809 38.7394 27.0546C37.7517 32.0802 34.4395 35.8711 31.1087 39.5601C29.0304 41.8506 26.5907 43.7769 24.0076 45.9687ZM24.1946 10.6378C23.2629 10.678 22.3095 10.6039 21.4059 10.7798C12.3948 12.5456 7.40936 22.2512 11.7996 30.5028C12.2265 31.3054 12.6783 31.7901 13.585 31.398C14.5665 30.9751 14.392 30.3423 13.962 29.518C13.0273 27.7306 12.3449 25.7642 12.535 23.7762C12.9899 19.0036 15.3424 15.4196 19.9881 13.6199C23.8674 12.1165 27.6033 12.6691 30.8033 15.1943C34.5517 18.1516 35.9632 22.1401 34.8695 26.8385C33.617 32.2222 28.3823 35.7692 23.0978 35.2506C21.49 35.0932 21.3934 36.2755 21.2033 36.9238C20.9509 37.782 22.0321 37.4115 22.5494 37.5319C23.5589 37.7665 24.5404 37.7079 25.5874 37.5844C32.6261 36.7725 37.1192 31.1974 37.6645 24.9215C38.2783 17.8831 32.1026 10.2087 24.1946 10.6378Z" fill="#F2F2F2"/>
<path d="M24.1946 10.6378C32.1026 10.2087 38.2752 17.88 37.6645 24.9214C37.1192 31.1973 32.6261 36.7725 25.5874 37.5844C24.5373 37.7048 23.5558 37.7665 22.5494 37.5319C22.0322 37.4115 20.9478 37.7789 21.2033 36.9238C21.3934 36.2786 21.49 35.0932 23.0978 35.2506C28.3823 35.7692 33.617 32.2222 34.8695 26.8385C35.9632 22.1431 34.5517 18.1516 30.8033 15.1943C27.6033 12.6691 23.8705 12.1165 19.9881 13.6199C15.3424 15.4196 12.9899 19.0036 12.535 23.7762C12.3449 25.7642 13.0304 27.7306 13.962 29.518C14.392 30.3422 14.5696 30.972 13.585 31.398C12.6783 31.79 12.2265 31.3054 11.7996 30.5028C7.40937 22.2512 12.3948 12.5456 21.4059 10.7798C22.3126 10.6039 23.266 10.678 24.1946 10.6378Z" fill="#FDFDFD"/>
<path d="M23.9986 27.7213C21.8953 27.7368 20.2969 26.2149 20.2813 24.1805C20.2689 22.2635 21.8642 20.6428 23.8147 20.5934C25.84 20.5409 27.5164 22.1369 27.5413 24.1404C27.5631 25.9895 25.8618 27.709 23.9986 27.7213ZM23.849 26.1161C25.2948 26.1192 26.1205 25.3752 26.161 24.02C26.1921 22.9642 25.1047 21.8128 24.0515 21.7881C22.8675 21.7603 21.8393 22.7821 21.8081 24.0107C21.7769 25.3752 22.4936 26.113 23.849 26.1161Z" fill="#E1E4E6"/>
<path d="M23.849 26.1161C22.4936 26.113 21.7769 25.3752 21.8081 24.0139C21.8393 22.7821 22.8675 21.7634 24.0515 21.7912C25.1047 21.8159 26.1921 22.9643 26.161 24.0231C26.1205 25.3752 25.2979 26.1223 23.849 26.1161Z" fill="#FDFDFD"/>
<path d="M24.4816 45.9719C26.5443 44.1351 28.2923 42.6317 29.9811 41.0604C33.34 37.9333 36.1194 34.34 38.0512 30.2003C41.03 23.8194 39.0047 16.2964 33.3556 12.1258C27.5663 7.85341 19.7361 8.10037 14.2054 12.734C8.90845 17.17 7.32247 24.8814 10.4259 30.9721C11.0241 32.142 11.7751 33.0805 13.2115 33.1021C15.3988 33.133 16.5766 30.9844 15.5079 28.9007C13.8284 25.6223 13.8191 22.3686 15.726 19.2013C18.1564 15.1635 23.0919 13.5026 27.4977 15.1573C31.8631 16.7965 34.4804 21.3961 33.6329 25.9341C32.7604 30.614 28.7254 33.9016 23.9114 33.8492C23.497 33.8461 23.0545 33.8955 22.6744 33.772C21.6648 33.4417 21.2161 33.9078 20.7332 34.732C17.8167 39.6929 10.9961 40.9308 6.58712 37.2974C4.13805 35.2784 3.20017 32.389 2.48975 29.4934C-0.850461 15.8488 9.32909 2.6487 23.4938 2.17021C34.6487 1.7936 44.7036 10.4125 45.8783 21.4548C46.8972 31.0029 43.102 38.279 34.9104 43.2707C31.9067 45.1044 28.4917 45.7897 24.4816 45.9719ZM24.1731 27.8881C26.0862 27.8634 27.8156 26.1254 27.828 24.2208C27.8405 22.2111 26.1112 20.5133 24.0609 20.5256C21.992 20.541 20.3219 22.2204 20.3562 24.2578C20.3904 26.2983 22.0886 27.9159 24.1731 27.8881Z" fill="#999999"/>
<path d="M24.1729 27.8881C22.0884 27.9159 20.3903 26.2983 20.356 24.2578C20.3217 22.2204 21.9887 20.5379 24.0608 20.5256C26.1079 20.5132 27.8403 22.2111 27.8278 24.2207C27.8154 26.1254 26.0861 27.8634 24.1729 27.8881Z" fill="white"/>
</g>
<defs>
<clipPath id="clip0">
<rect width="48" height="48" fill="white"/>
</clipPath>
</defs>
</svg>
